# xmcd
#
# Track frame offsets: 
#        150
#        19055
#        29425
#        47527
#        57732
#        68602
#        86552
#        105667
#        119970
#        137115
#        150330
#
# Disc length: 2136 seconds
#
# Revision: 0
# Processed by: cddbd v1.5PL3 Copyright (c) Steve Scherf et al.
# Submitted via: ExactAudioCopy v0.95a5
#
DISCID=9408560b
DTITLE=The Floodplain Gang - Blind Ride
DYEAR=1900
DGENRE=Bluegrass
TTITLE0=Jimtown Rag
TTITLE1=Walkin Grin
TTITLE2=Blind Ride
TTITLE3=Diamonds from Smiling
TTITLE4=Riff Race
TTITLE5=Tayo
TTITLE6=Falling Reign
TTITLE7=Return to Paco
TTITLE8=Moonlight
TTITLE9=Weary Voyager
TTITLE10=Jelly
EXTD=
EXTT0=
EXTT1=
EXTT2=
EXTT3=
EXTT4=
EXTT5=
EXTT6=
EXTT7=
EXTT8=
EXTT9=
EXTT10=
PLAYORDER=
